<svg width="140" height="60" viewBox="0 0 140 60" fill="none" xmlns="http://www.w3.org/2000/svg">
<mask id="mask0_253_280" style="mask-type:luminance" maskUnits="userSpaceOnUse" x="0" y="0" width="140" height="60">
<path d="M0.950195 0.704987H139.95V59.295H0.950195V0.704987Z" fill="white"/>
</mask>
<g mask="url(#mask0_253_280)">
<path d="M71.2102 27.968C70.5724 30.1112 69.8754 32.2363 69.1202 34.341C68.7919 35.2596 68.4485 36.1727 68.0902 37.08C67.7702 36.27 67.4202 35.357 67.0462 34.341C66.6609 33.3018 66.2955 32.2552 65.9502 31.202C65.5986 30.1301 65.2666 29.052 64.9542 27.968C64.663 26.9643 64.3897 25.9554 64.1342 24.942H60.0002C60.9222 28.209 61.9442 31.269 63.0722 34.12C64.1972 36.97 65.2982 39.497 66.3702 41.694H69.6842C70.7552 39.494 71.8542 36.967 72.9812 34.12C74.1584 31.114 75.1841 28.0508 76.0542 24.942H72.0502C71.7934 25.9567 71.5143 26.9656 71.2132 27.968H71.2102ZM82.8092 24.942H78.9322V41.694H82.8092V24.942ZM80.8542 17.635C80.1932 17.635 79.6272 17.85 79.1572 18.277C78.6872 18.704 78.4532 19.292 78.4532 20.04C78.4532 20.787 78.6882 21.343 79.1572 21.77C79.6195 22.1938 80.2272 22.4234 80.8542 22.411C81.4726 22.425 82.0716 22.1947 82.5212 21.77C82.9912 21.343 83.2252 20.768 83.2252 20.04C83.2252 19.312 82.9912 18.707 82.5212 18.277C82.069 17.8563 81.4719 17.6263 80.8542 17.635ZM93.1702 35.366C93.9486 34.3183 94.7437 33.2832 95.5552 32.261C96.2812 31.3459 97.0233 30.4437 97.7812 29.555C98.3253 28.9117 98.8855 28.2822 99.4612 27.667V24.945H86.7442V28.18H94.4642C93.8882 28.864 93.2302 29.665 92.4922 30.58C91.7311 31.5311 90.989 32.4973 90.2662 33.478C89.5286 34.4787 88.8019 35.4874 88.0862 36.504C87.4489 37.4008 86.8607 38.3315 86.3242 39.292V41.694H99.6502V38.459H91.0002C91.6914 37.4072 92.413 36.3758 93.1642 35.366H93.1702ZM108.673 35.366C110.147 33.3793 111.686 31.4416 113.287 29.556C113.831 28.9118 114.391 28.2816 114.967 27.666V24.945H102.25V28.18H109.969C109.304 28.9733 108.647 29.7734 107.998 30.58C107.237 31.5314 106.495 32.4976 105.772 33.478C105.035 34.4787 104.309 35.4874 103.593 36.504C102.956 37.4007 102.367 38.3314 101.83 39.292V41.694H115.155V38.459H106.507C107.198 37.4069 107.919 36.3755 108.67 35.366H108.673ZM120.702 17.635C120.04 17.635 119.475 17.85 119.005 18.277C118.535 18.704 118.301 19.292 118.301 20.04C118.301 20.787 118.535 21.343 119.005 21.77C119.475 22.196 120.04 22.411 120.702 22.411C121.321 22.425 121.92 22.1947 122.369 21.77C122.838 21.343 123.073 20.768 123.073 20.04C123.073 19.312 122.838 18.707 122.369 18.277C121.917 17.8565 121.32 17.6265 120.702 17.635ZM122.656 24.942H118.78V41.694H122.656V24.942ZM139.617 28.447C139.392 27.627 139.018 26.927 138.496 26.351C137.973 25.775 137.272 25.325 136.399 25.004C135.522 24.684 134.444 24.524 133.164 24.524C132.096 24.524 131.094 24.611 130.154 24.78C129.215 24.952 128.501 25.12 128.008 25.292L128.487 28.431C128.957 28.259 129.566 28.111 130.313 27.981C131.129 27.8472 131.954 27.7829 132.78 27.789C133.442 27.789 133.991 27.875 134.431 28.044C134.867 28.216 135.221 28.454 135.489 28.765C135.757 29.075 135.942 29.433 136.048 29.837C136.154 30.243 136.207 30.67 136.207 31.117V31.758C135.274 31.5297 134.317 31.4123 133.356 31.408C132.436 31.408 131.557 31.5 130.713 31.678C129.87 31.861 129.129 32.158 128.487 32.575C127.856 32.9819 127.334 33.537 126.966 34.192C126.592 34.854 126.407 35.664 126.407 36.627C126.407 37.589 126.572 38.476 126.903 39.157C127.216 39.8184 127.689 40.3914 128.279 40.824C128.868 41.25 129.576 41.561 130.409 41.754C131.242 41.945 132.159 42.041 133.164 42.041C134.679 42.041 136.041 41.948 137.249 41.77C138.155 41.64 139.057 41.4856 139.954 41.307V31.153C139.954 30.171 139.842 29.268 139.617 28.447ZM136.207 38.777C135.588 38.905 134.679 38.968 133.485 38.968C132.503 38.968 131.722 38.793 131.147 38.439C130.571 38.085 130.28 37.45 130.28 36.534C130.28 36.064 130.386 35.674 130.601 35.364C130.816 35.0528 131.109 34.8037 131.451 34.642C131.826 34.4647 132.225 34.3453 132.635 34.288C133.511 34.1596 134.401 34.1596 135.277 34.288C135.684 34.351 135.992 34.418 136.207 34.48V38.777ZM41.6282 29.678C39.5382 28.626 37.1662 27.435 36.6012 26.817C35.1622 25.246 35.9232 21.707 36.5312 18.866C36.6542 18.3 36.7692 17.751 36.8692 17.236C37.2562 15.218 36.5582 13.187 34.9572 11.666C33.5772 10.356 31.8552 9.751 30.4562 10.091C29.7782 10.257 28.9442 10.601 27.8862 11.041C25.4322 12.056 22.0712 13.448 18.3412 13.571C16.0352 13.647 14.0682 14.457 12.4142 15.559C11.4568 16.2057 10.5658 16.9457 9.75424 17.768C8.66724 18.859 7.79024 19.968 7.11524 20.821C6.94324 21.039 6.78524 21.241 6.63524 21.423C4.82024 23.662 1.32824 30.745 1.18324 31.047L0.948242 31.523L1.13024 32.019C2.85024 36.713 5.50924 41.307 9.86824 44.297C10.6473 44.8341 11.4679 45.3083 12.3222 45.715C12.3922 45.748 12.4582 45.788 12.5312 45.821C15.9042 47.376 18.6162 47.839 20.8262 47.839C22.6982 47.839 24.2062 47.508 25.4532 47.237L25.5392 47.217C30.9592 46.03 36.3372 40.543 36.5622 40.307L34.7862 38.581C34.7362 38.634 29.7132 43.767 25.0092 44.796L24.9232 44.816C24.8412 44.832 24.7582 44.852 24.6722 44.872L24.5862 44.892C24.5302 44.905 24.4742 44.915 24.4142 44.928C24.3786 44.934 24.3432 44.9417 24.3082 44.951L24.1462 44.984L24.0342 45.008C23.9812 45.018 23.9282 45.028 23.8752 45.041C23.8352 45.047 23.7952 45.057 23.7532 45.064L23.5932 45.094C23.5512 45.1 23.5082 45.11 23.4652 45.117C23.4122 45.127 23.3592 45.137 23.3062 45.143C23.2632 45.15 23.2162 45.156 23.1742 45.166C23.1212 45.176 23.0642 45.183 23.0122 45.193L22.8762 45.213C22.8202 45.219 22.7642 45.229 22.7072 45.236C22.6611 45.243 22.6147 45.2483 22.5682 45.252L22.3962 45.272C22.3502 45.279 22.3012 45.282 22.2542 45.289L22.0762 45.305L21.9302 45.319C21.8672 45.322 21.8052 45.329 21.7422 45.332C21.6952 45.332 21.6492 45.338 21.5992 45.342L21.3942 45.352C21.3482 45.352 21.3052 45.355 21.2592 45.358C21.1792 45.358 21.1002 45.362 21.0212 45.362H20.4802C20.3842 45.362 20.2842 45.355 20.1852 45.352C20.1422 45.352 20.0952 45.345 20.0532 45.345C19.9702 45.342 19.8912 45.335 19.8082 45.328C19.7552 45.325 19.7022 45.318 19.6532 45.315L19.4212 45.295L19.2522 45.275C19.1762 45.265 19.1002 45.259 19.0242 45.249C18.9647 45.2419 18.9053 45.2333 18.8462 45.223C18.7687 45.2122 18.6913 45.1999 18.6142 45.186L18.4292 45.156C18.3506 45.1433 18.2723 45.129 18.1942 45.113C18.1312 45.1 18.0652 45.09 18.0022 45.077L17.7612 45.027C17.6952 45.014 17.6292 44.997 17.5622 44.984L17.3142 44.924L17.1132 44.875L16.8552 44.805L16.6502 44.75L16.3822 44.67C16.3122 44.65 16.2462 44.627 16.1772 44.607C16.0842 44.577 15.9882 44.544 15.8922 44.515C15.8262 44.492 15.7572 44.472 15.6872 44.445C15.5852 44.409 15.4792 44.373 15.3772 44.333C15.3132 44.31 15.2512 44.29 15.1872 44.263C15.0592 44.213 14.9272 44.164 14.7972 44.111L14.6752 44.065C14.4992 43.994 14.3239 43.9213 14.1492 43.847C14.0992 43.827 14.0502 43.8 14.0002 43.78C13.8712 43.724 13.7422 43.665 13.6102 43.605C13.5402 43.575 13.4712 43.539 13.4022 43.506C13.3022 43.46 13.2072 43.416 13.1072 43.367C13.0972 43.364 13.0872 43.357 13.0772 43.351C12.6498 43.1434 12.2276 42.925 11.8112 42.696C11.4172 42.441 11.0342 42.156 10.6572 41.866C10.5712 41.799 10.4812 41.736 10.3992 41.67C10.3392 41.624 10.2832 41.571 10.2272 41.522C10.1412 41.449 10.0552 41.376 9.96924 41.3C9.79531 41.1501 9.62525 40.9957 9.45924 40.837C9.15874 40.559 8.86982 40.2688 8.59324 39.967C8.57024 39.941 8.54324 39.917 8.52024 39.891C8.29009 39.6365 8.06504 39.3775 7.84524 39.114C7.77924 39.034 7.71624 38.952 7.65024 38.869C7.25662 38.3794 6.88589 37.8719 6.53924 37.348C6.47624 37.255 6.41324 37.162 6.35024 37.066C6.14919 36.7548 5.95415 36.4397 5.76524 36.121C6.75718 36.8561 7.77202 37.5598 8.80824 38.231C11.7352 40.132 14.0572 40.751 15.8462 40.751C19.1142 40.751 20.5992 38.677 20.6912 38.541L18.6642 37.119C18.5712 37.245 16.3092 40.146 10.1572 36.15C6.96924 34.08 4.82224 32.248 3.83024 31.341C5.02724 28.961 7.37224 24.485 8.58024 23.001C8.73224 22.811 8.90024 22.6 9.07924 22.371C10.8952 20.07 13.9372 16.217 18.4392 16.065C22.6192 15.922 26.3672 14.371 28.8472 13.345C29.7702 12.965 30.5672 12.635 31.0572 12.515C31.5202 12.403 32.4492 12.701 33.2632 13.478C33.7262 13.918 34.7642 15.118 34.4472 16.788C34.3447 17.3157 34.2354 17.8421 34.1192 18.367C33.3922 21.767 32.4852 25.997 34.7842 28.51C35.6182 29.42 37.5092 30.396 40.5262 31.914C42.7552 33.034 45.2852 34.304 47.1572 35.562C49.7632 37.312 49.7402 38.142 49.7302 38.231L49.8102 38.241C49.8702 37.011 49.9122 35.78 49.9452 34.55C48.0632 33.005 45.1332 31.457 41.6342 29.698L41.6272 29.678H41.6282ZM11.1602 43.741L11.1442 43.771L11.1642 43.741H11.1602Z" fill="#004743"/>
<path d="M49.6283 18.655C49.9823 23.923 50.0783 29.231 49.9393 34.53C49.8403 38.3163 49.6165 42.0984 49.2683 45.87L48.6263 52.714L48.2423 56.818H13.5643L12.5403 45.871C12.5403 45.854 12.5403 45.838 12.5373 45.821C12.466 45.789 12.3963 45.7536 12.3283 45.715C11.4746 45.3069 10.6542 44.8328 9.87428 44.297C9.93428 44.875 10.0243 45.56 10.0733 46.102L11.3103 59.296H50.5003L51.0953 52.946L51.7363 46.102C52.7374 35.392 52.7374 24.612 51.7363 13.902L50.4983 0.707001H11.3083L10.0733 13.902C9.95328 15.182 9.84828 16.478 9.75928 17.768C10.5697 16.9446 11.4605 16.2042 12.4183 15.558C12.4583 15.082 12.4983 14.606 12.5403 14.133L13.5653 3.186H48.2433L49.6333 18.658" fill="#F8A44C"/>
<path d="M20.9332 18.548C16.3002 19.326 13.1612 23.728 13.9382 28.362C14.6362 32.522 18.2552 35.476 22.3392 35.476C22.8052 35.476 23.2792 35.436 23.7512 35.356C24.856 35.1742 25.9138 34.7749 26.8631 34.1811C27.8124 33.5873 28.6343 32.8109 29.2812 31.897C29.9341 30.9872 30.3999 29.9567 30.6516 28.8655C30.9032 27.7742 30.9357 26.6439 30.7472 25.54C29.9692 20.907 25.5642 17.768 20.9332 18.545V18.548ZM27.2672 30.465C26.8082 31.113 26.2252 31.6636 25.552 32.0849C24.8788 32.5061 24.1287 32.7896 23.3452 32.919C21.7637 33.1829 20.1422 32.8083 18.8366 31.8776C17.5311 30.9469 16.6483 29.5361 16.3822 27.955C16.1636 26.6458 16.3848 25.3012 17.0112 24.131C17.0339 25.2087 17.4775 26.2348 18.2471 26.9896C19.0167 27.7445 20.0512 28.1681 21.1292 28.17C23.3742 28.17 25.2492 26.32 25.2492 24.049C25.2492 22.927 24.7962 21.909 24.0692 21.165C25.1536 21.4873 26.126 22.1072 26.876 22.9542C27.626 23.8012 28.1235 24.8415 28.3122 25.957C28.4459 26.7397 28.423 27.5412 28.2449 28.315C28.0667 29.0888 27.7367 29.8196 27.2742 30.465H27.2672Z" fill="#004743"/>
</g>
</svg>
